<?xml version="1.0" encoding="utf-8"?>
<!-- Generator: Adobe Illustrator 24.3.0, SVG Export Plug-In . SVG Version: 6.00 Build 0)  -->
<svg version="1.1" id="Layer_1" xmlns="http://www.w3.org/2000/svg" xmlns:xlink="http://www.w3.org/1999/xlink" x="0px" y="0px"
	 viewBox="0 0 225 225" style="enable-background:new 0 0 225 225;" xml:space="preserve">
<style type="text/css">
	.st0{fill:#000;}
</style>
<g>
	<path class="st0" d="M101.3,147.4c0.6,3.2,1.7,5.8,3.4,7.5c1.7,1.8,4.1,2.6,7.3,2.6c3.7,0,6.5-1.3,8.4-3.9s2.9-5.9,2.9-9.8
		c0-3.9-0.9-7.2-2.7-9.8c-1.8-2.7-4.6-4-8.5-4c-1.8,0-3.4,0.2-4.7,0.7c-2.3,0.8-4.1,2.4-5.3,4.7l-13.4-0.6l5.3-42H136v12.7h-31
		l-2.7,16.6c2.3-1.5,4.1-2.5,5.4-3c2.2-0.8,4.8-1.2,7.9-1.2c6.3,0,11.8,2.1,16.4,6.3s7,10.4,7,18.5c0,7-2.3,13.3-6.8,18.8
		c-4.5,5.5-11.2,8.3-20.2,8.3c-7.2,0-13.2-1.9-17.8-5.8c-4.6-3.9-7.2-9.4-7.8-16.5H101.3z"/>
</g>
<g>
	<path class="st0" d="M108.3,32.2"/>
	<path class="st0" d="M122.2,29v7.5"/>
	<line class="st1" x1="85.6" y1="33.4" x2="85.6" y2="37.7"/>
	<path class="st0" d="M85.6,26.8"/>
	<path class="st0" d="M14.2,126.4c0,54,43.9,97.9,97.9,97.9s97.9-43.9,97.9-97.9c0-48-34.7-88-80.3-96.3V1.3L93.1,22.5V1.3
		L39.6,32.2l53.5,30.9V42l36.6,21.1V37.7c41.4,8.2,72.8,44.8,72.8,88.7c0,49.8-40.5,90.4-90.4,90.4c-49.8,0-90.4-40.5-90.4-90.4
		c0-2.1-1.7-3.7-3.7-3.7S14.2,124.3,14.2,126.4z M85.6,50.2l-31-17.9l31-17.9v12.5v4.3v2.3v4.3V50.2z M122.2,50.2L93.1,33.4v-2.3
		l29.1-16.8V29v7.5V50.2z"/>
</g>
</svg>
