<?xml version="1.0" encoding="utf-8"?>
<!-- Generator: Adobe Illustrator 24.3.0, SVG Export Plug-In . SVG Version: 6.00 Build 0)  -->
<svg version="1.1" id="Layer_1" xmlns="http://www.w3.org/2000/svg" xmlns:xlink="http://www.w3.org/1999/xlink" x="0px" y="0px"
	 viewBox="0 0 225 225" style="enable-background:new 0 0 225 225;" xml:space="preserve">
<style type="text/css">
	.st0{fill:none;stroke:#000;stroke-width:7;stroke-linecap:round;stroke-miterlimit:10;}
	.st1{fill:#000;}
</style>
<path class="st0" d="M112.2,32c-4.9,0-9.6,0.4-14.3,1.1c-9.3,1.4-18.2,4.2-26.4,8.2c-1.4,0.7-2.7,1.4-4.1,2.1
	c-1.3,0.7-2.6,1.5-3.9,2.3c-2.6,1.6-5.1,3.3-7.5,5.1c-1.2,0.9-2.4,1.8-3.6,2.8c-1.7,1.4-3.4,2.9-5.1,4.5c-1.1,1-2.2,2.1-3.2,3.2
	c-1.6,1.6-3.1,3.3-4.5,5.1c-1.4,1.7-2.8,3.5-4.1,5.4c-0.4,0.6-0.9,1.2-1.3,1.9c-1.7,2.5-3.3,5.1-4.7,7.8c-0.7,1.3-1.4,2.7-2.1,4.1
	s-1.3,2.8-1.9,4.2c-4.8,11.2-7.4,23.6-7.4,36.6s2.6,25.3,7.4,36.6c0.6,1.4,1.2,2.8,1.9,4.2c0.7,1.4,1.4,2.7,2.1,4.1
	c1.4,2.7,3,5.3,4.7,7.8c0.4,0.6,0.9,1.2,1.3,1.9c1.3,1.8,2.7,3.6,4.1,5.4c1.4,1.7,2.9,3.4,4.5,5.1c1,1.1,2.1,2.2,3.2,3.2
	c1.6,1.6,3.3,3.1,5.1,4.5c1.2,1,2.3,1.9,3.6,2.8c2.4,1.8,4.9,3.5,7.5,5.1c1.3,0.8,2.6,1.5,3.9,2.3c1.3,0.7,2.7,1.4,4.1,2.1
	c8.2,4,17.1,6.8,26.4,8.2c4.7,0.7,9.5,1.1,14.3,1.1c51.9,0,94-42.1,94-94S164.2,32,112.2,32z"/>
<g>
	<rect x="76" y="80.3" class="st1" width="29.6" height="86"/>
	<rect x="121.5" y="80.3" class="st1" width="29.6" height="86"/>
</g>
</svg>
