<?xml version="1.0" encoding="utf-8"?>
<!-- Generator: Adobe Illustrator 24.3.0, SVG Export Plug-In . SVG Version: 6.00 Build 0)  -->
<svg version="1.1" id="Layer_1" xmlns="http://www.w3.org/2000/svg" xmlns:xlink="http://www.w3.org/1999/xlink" x="0px" y="0px"
	 viewBox="0 0 225 225" style="enable-background:new 0 0 225 225;" xml:space="preserve">
<style type="text/css">
	.st0{fill:#000;}
</style>
<g>
	<path class="st0" d="M112.2,224.3c-4.8,0-9.7-0.4-14.8-1.1c-9.6-1.4-18.8-4.3-27.4-8.5c-1.4-0.7-2.9-1.4-4.2-2.2l-0.2-0.1
		c-0.6-0.4-1.2-0.7-1.9-1.1c-0.7-0.4-1.4-0.8-2-1.2c-2.7-1.6-5.3-3.4-7.7-5.2c-1.4-1-2.6-1.9-3.7-2.9c-1.9-1.5-3.7-3-5.3-4.7
		c-1.2-1.1-2.3-2.2-3.4-3.4c-1.6-1.7-3.2-3.5-4.6-5.2l-0.1-0.1c-1.4-1.8-2.8-3.6-4.1-5.4l-0.2-0.3c-0.2-0.3-0.4-0.6-0.6-0.9
		c-0.2-0.3-0.4-0.5-0.6-0.8c-1.9-2.8-3.5-5.5-4.9-8.1c-0.4-0.7-0.7-1.4-1-2c-0.4-0.7-0.7-1.4-1.1-2.1c-0.7-1.5-1.4-3-2-4.4
		c-5.1-12-7.7-24.8-7.7-38c0-13.3,2.6-26.1,7.7-38c0.6-1.4,1.2-2.9,2-4.4c0.7-1.4,1.4-2.9,2.1-4.2c1.3-2.6,2.9-5.2,4.8-8
		c0.3-0.6,0.7-1,1-1.4c0.1-0.2,0.3-0.4,0.4-0.5c1.2-1.8,2.6-3.6,4.3-5.7c1.4-1.8,3-3.6,4.7-5.3c1.1-1.2,2.2-2.3,3.4-3.4
		c1.7-1.6,3.5-3.2,5.2-4.6c1.3-1,2.5-2,3.7-2.9c2.5-1.9,5.1-3.6,7.8-5.3c1.3-0.8,2.7-1.6,4.1-2.4l0.1,0c0.7-0.3,1.4-0.7,2-1
		c0.7-0.4,1.4-0.7,2.1-1.1c8.7-4.2,17.9-7.1,27.4-8.5c5.1-0.8,10-1.1,14.8-1.1c53.8,0,97.5,44.1,97.5,98.3
		C209.7,180.6,166,224.3,112.2,224.3z M69.1,206.4c1.2,0.7,2.6,1.3,3.9,2c8,3.9,16.5,6.5,25.4,7.9c4.7,0.7,9.4,1.1,13.8,1.1
		c49.9,0,90.5-40.6,90.5-90.5c0-50.3-40.6-91.3-90.5-91.3c-4.5,0-9,0.3-13.8,1.1c-8.8,1.3-17.4,4-25.4,7.9c-0.7,0.3-1.3,0.7-2,1
		c-0.7,0.4-1.4,0.7-2.1,1.1c-1.2,0.7-2.5,1.4-3.7,2.2c-2.5,1.5-4.9,3.2-7.2,4.9c-1.2,0.9-2.3,1.7-3.5,2.7c-1.6,1.4-3.3,2.8-4.9,4.4
		c-1.1,1-2.1,2-3,3l-0.1,0.1c-1.5,1.5-2.9,3.1-4.2,4.8c-1.6,2-2.9,3.6-4,5.2c-0.1,0.2-0.3,0.5-0.5,0.7c-0.2,0.3-0.5,0.6-0.6,0.9
		l-0.1,0.2c-1.8,2.6-3.2,5.1-4.5,7.4c-0.7,1.3-1.4,2.7-2,4c-0.7,1.4-1.2,2.7-1.8,4.1c-4.7,11-7.1,22.9-7.1,35.2
		c0,12.3,2.4,24.1,7.1,35.2c0.6,1.3,1.2,2.7,1.8,4c0.3,0.7,0.7,1.3,1,2c0.4,0.7,0.7,1.4,1.1,2.1c1.2,2.3,2.7,4.8,4.5,7.4
		c0.1,0.2,0.3,0.4,0.4,0.6c0.3,0.4,0.6,0.8,0.9,1.4c1.2,1.7,2.6,3.4,3.9,5.1c1.3,1.6,2.8,3.3,4.3,4.9c1,1.1,2,2.1,3,3l0.1,0.1
		c1.5,1.5,3.1,2.9,4.8,4.2l0.1,0.1c1.1,0.9,2.2,1.8,3.4,2.6l0.1,0.1c2.3,1.7,4.7,3.4,7.2,4.9c0.6,0.4,1.2,0.7,1.9,1.1
		C67.8,205.6,68.5,206,69.1,206.4z M44.1,61.3L44.1,61.3L44.1,61.3z"/>
</g>
<g>
	<polygon class="st0" points="163.9,124.7 84,78.5 84,170.8 	"/>
</g>
</svg>
